<?xml version="1.0" standalone="no"?>
<!DOCTYPE svg PUBLIC "-//W3C//DTD SVG 20010904//EN"
 "http://www.w3.org/TR/2001/REC-SVG-20010904/DTD/svg10.dtd">
<svg version="1.0" xmlns="http://www.w3.org/2000/svg"
 width="1800.000000pt" height="1200.000000pt" viewBox="0 0 1800.000000 1200.000000"
 preserveAspectRatio="xMidYMid meet">

<g
fill="white" stroke="none">
<path d="M4740 6000 l0 -550 3680 0 3680 0 0 550 0 550 -3680 0 -3680 0 0
-550z m7330 0 l0 -520 -3650 0 -3650 0 0 520 0 520 3650 0 3650 0 0 -520z"/>
<path d="M5215 6084 c-179 -259 -190 -273 -195 -243 -3 18 -10 34 -17 36 -16
6 -25 -32 -21 -93 4 -67 22 -64 78 16 l45 65 3 -67 3 -68 97 0 98 0 54 110
c30 61 57 110 60 110 3 0 27 -50 54 -110 l48 -110 104 0 c102 0 104 0 110 25
3 14 4 43 2 65 -2 22 -1 40 2 40 3 0 25 -30 49 -65 58 -87 71 -85 71 11 0 66
-2 75 -17 72 -12 -2 -19 -14 -21 -37 l-3 -33 -52 74 c-282 407 -334 478 -347
478 -8 -1 -100 -125 -205 -276z m349 31 l136 -195 0 -80 0 -80 -76 0 -75 0
-59 126 c-33 69 -65 124 -71 122 -6 -2 -40 -58 -74 -123 l-64 -120 -70 -3 -71
-3 0 78 0 78 137 198 c75 108 140 197 144 197 4 0 68 -88 143 -195z"/>
<path d="M7840 6174 c-11 -12 -10 -18 3 -32 16 -15 18 -15 34 0 13 14 14 20 3
32 -7 9 -16 16 -20 16 -4 0 -13 -7 -20 -16z"/>
<path d="M8500 6174 c-11 -12 -10 -18 3 -32 16 -15 18 -15 34 0 13 14 14 20 3
32 -7 9 -16 16 -20 16 -4 0 -13 -7 -20 -16z"/>
<path d="M8957 6183 c-4 -3 -7 -79 -7 -167 0 -130 3 -166 16 -184 18 -26 74
-31 74 -7 0 8 -9 15 -19 15 -10 0 -22 7 -25 16 -3 9 -6 87 -6 175 0 126 -3
159 -13 159 -8 0 -17 -3 -20 -7z"/>
<path d="M9640 6001 c0 -184 1 -191 20 -191 19 0 20 7 20 95 0 88 2 98 25 120
31 32 78 33 99 3 12 -17 16 -48 16 -120 0 -91 1 -98 20 -98 19 0 20 7 20 94 0
101 -12 151 -40 166 -32 17 -98 12 -120 -10 -19 -19 -19 -19 -22 53 -2 59 -6
72 -20 75 -17 3 -18 -11 -18 -187z"/>
<path d="M9952 6181 c-20 -12 -10 -46 13 -46 14 0 20 7 20 24 0 27 -13 35 -33
22z"/>
<path d="M6130 6150 c0 -18 7 -20 55 -20 l55 0 0 -160 c0 -153 1 -160 20 -160
19 0 20 7 20 160 l0 160 55 0 c48 0 55 2 55 20 0 19 -7 20 -130 20 -123 0
-130 -1 -130 -20z"/>
<path d="M7470 5991 l0 -181 78 0 c141 0 206 55 206 174 -1 127 -52 176 -195
184 l-89 5 0 -182z m174 129 c46 -17 68 -66 64 -144 -3 -62 -7 -71 -36 -97
-29 -26 -40 -29 -97 -29 l-65 0 0 140 0 140 54 0 c30 0 66 -4 80 -10z"/>
<path d="M10600 6152 c-104 -52 -118 -225 -26 -311 20 -19 40 -26 85 -29 69
-5 113 14 136 58 14 27 14 31 1 36 -10 4 -25 -6 -41 -25 -32 -37 -79 -48 -127
-28 -44 18 -68 67 -68 137 0 92 42 140 121 140 37 0 52 -5 73 -27 19 -19 30
-23 38 -15 29 29 -42 82 -112 82 -25 0 -61 -8 -80 -18z"/>
<path d="M6474 6046 c-34 -34 -39 -54 -34 -131 5 -69 44 -104 117 -105 41 0
58 5 80 24 22 19 25 27 16 37 -9 9 -18 7 -39 -10 -15 -11 -40 -21 -56 -21 -36
0 -78 40 -78 75 l0 25 95 0 c95 0 95 0 95 25 0 38 -25 92 -48 104 -12 6 -42
11 -67 11 -40 0 -52 -5 -81 -34z m135 -22 c37 -47 29 -54 -54 -54 -83 0 -91 7
-54 54 15 19 30 26 54 26 24 0 39 -7 54 -26z"/>
<path d="M6778 6065 c-64 -35 -75 -170 -18 -227 24 -24 36 -28 84 -28 44 0 61
5 83 24 22 19 25 27 16 37 -9 9 -18 7 -39 -10 -15 -11 -39 -21 -55 -21 -35 0
-77 37 -81 70 -3 25 -3 25 90 28 l92 3 0 35 c0 39 -14 72 -39 91 -22 17 -100
15 -133 -2z m114 -32 c8 -10 18 -28 21 -40 5 -22 3 -23 -69 -23 -67 0 -74 2
-74 20 0 51 88 82 122 43z"/>
<path d="M7030 5945 c0 -128 1 -135 20 -135 19 0 20 7 20 95 0 88 2 98 25 120
31 32 78 33 99 3 12 -17 16 -48 16 -120 0 -91 1 -98 20 -98 19 0 20 7 20 94 0
101 -12 151 -40 166 -33 17 -98 12 -120 -10 -11 -11 -22 -20 -25 -20 -3 0 -5
9 -5 20 0 11 -7 20 -15 20 -13 0 -15 -22 -15 -135z"/>
<path d="M7840 5945 c0 -128 1 -135 20 -135 19 0 20 7 20 135 0 128 -1 135
-20 135 -19 0 -20 -7 -20 -135z"/>
<path d="M7974 6054 c-20 -19 -24 -31 -19 -52 10 -40 22 -50 77 -67 78 -23 96
-46 62 -79 -22 -22 -66 -20 -98 5 -27 21 -46 18 -46 -6 0 -25 43 -45 98 -45
43 0 58 5 77 25 50 49 24 103 -64 132 -30 10 -59 25 -65 35 -24 40 54 66 101
33 18 -12 23 -13 32 -1 19 22 -24 46 -82 46 -38 0 -53 -5 -73 -26z"/>
<path d="M8249 6052 c-57 -51 -57 -163 0 -214 25 -23 41 -28 80 -28 50 0 101
28 101 55 0 26 -19 26 -44 0 -33 -33 -79 -33 -111 0 -21 20 -25 34 -25 80 0
46 4 60 25 80 30 31 73 32 109 4 21 -17 30 -19 39 -10 9 10 6 18 -16 37 -42
36 -115 34 -158 -4z"/>
<path d="M8500 5945 c0 -128 1 -135 20 -135 19 0 20 7 20 135 0 128 -1 135
-20 135 -19 0 -20 -7 -20 -135z"/>
<path d="M8630 5890 c0 -183 1 -190 20 -190 18 0 20 7 20 70 0 70 7 83 30 55
19 -23 101 -20 133 5 55 44 57 180 2 228 -35 29 -102 30 -139 1 l-26 -20 0 20
c0 14 -6 21 -20 21 -19 0 -20 -7 -20 -190z m175 135 c21 -20 25 -34 25 -80 0
-46 -4 -60 -25 -80 -32 -33 -74 -33 -106 1 -19 21 -24 36 -24 81 0 48 4 58 28
79 36 31 71 31 102 -1z"/>
<path d="M9138 6065 c-64 -35 -75 -170 -18 -227 24 -24 36 -28 84 -28 44 0 61
5 83 24 22 19 25 27 16 37 -9 9 -18 7 -39 -10 -15 -11 -39 -21 -55 -21 -35 0
-77 37 -81 70 -3 25 -3 25 90 28 l92 3 0 35 c0 39 -14 72 -39 91 -22 17 -100
15 -133 -2z m114 -32 c8 -10 18 -28 21 -40 5 -22 3 -23 -69 -23 -67 0 -74 2
-74 20 0 51 88 82 122 43z"/>
<path d="M9390 6060 c-25 -25 -26 -72 -1 -94 10 -9 42 -24 72 -34 44 -14 55
-22 57 -41 7 -49 -63 -68 -111 -31 -20 16 -27 17 -35 7 -39 -47 118 -81 166
-37 29 27 30 82 1 109 -11 10 -37 22 -57 26 -53 10 -72 23 -72 49 0 36 59 50
100 24 15 -10 22 -10 32 0 20 20 -20 41 -79 42 -40 0 -58 -5 -73 -20z"/>
<path d="M9950 5945 c0 -128 1 -135 20 -135 19 0 20 7 20 135 0 128 -1 135
-20 135 -19 0 -20 -7 -20 -135z"/>
<path d="M10080 5890 c0 -183 1 -190 20 -190 18 0 20 7 20 71 l0 70 22 -15
c25 -18 100 -21 129 -6 30 17 49 64 49 125 0 61 -19 108 -49 125 -33 17 -96
12 -125 -11 l-26 -20 0 20 c0 14 -6 21 -20 21 -19 0 -20 -7 -20 -190z m175
135 c21 -20 25 -34 25 -80 0 -46 -4 -60 -25 -80 -39 -40 -96 -32 -120 16 -27
51 -11 147 27 162 32 13 70 6 93 -18z"/>
<path d="M10887 6059 c-21 -17 -25 -24 -16 -35 9 -11 16 -10 38 7 55 41 145 2
94 -40 -12 -10 -40 -21 -61 -25 -56 -9 -84 -34 -85 -78 -1 -53 25 -78 81 -78
29 0 52 6 65 17 18 17 19 17 28 0 6 -10 22 -17 39 -17 34 0 39 14 10 30 -18 9
-20 21 -20 99 0 74 -3 93 -21 115 -17 22 -28 26 -72 26 -37 -1 -60 -7 -80 -21z
m133 -135 c0 -28 -16 -65 -34 -76 -6 -4 -26 -8 -44 -8 -35 0 -54 26 -44 62 4
17 53 37 115 47 4 0 7 -11 7 -25z"/>
<path d="M11150 5945 c0 -126 1 -135 19 -135 17 0 19 10 23 101 3 92 5 103 27
120 31 25 66 24 85 -3 12 -17 16 -48 16 -120 0 -91 1 -98 20 -98 19 0 20 7 20
98 0 90 2 100 23 120 26 24 66 29 85 10 8 -8 12 -49 12 -120 0 -101 1 -108 20
-108 19 0 20 7 20 115 0 102 -2 117 -20 135 -27 27 -89 27 -124 -1 l-27 -22
-15 22 c-21 30 -89 29 -121 -1 l-23 -21 0 21 c0 15 -6 22 -20 22 -19 0 -20 -7
-20 -135z"/>
<path d="M11610 5890 c0 -183 1 -190 20 -190 18 0 20 7 20 70 0 70 7 83 30 55
19 -23 101 -20 133 5 55 44 57 180 2 228 -35 29 -102 30 -139 1 l-26 -20 0 20
c0 14 -6 21 -20 21 -19 0 -20 -7 -20 -190z m175 135 c21 -20 25 -34 25 -80 0
-46 -4 -60 -25 -80 -32 -33 -74 -33 -106 1 -19 21 -24 36 -24 81 0 48 4 58 28
79 36 31 71 31 102 -1z"/>
</g>
</svg>
