<?xml version="1.0" standalone="no"?>
<!DOCTYPE svg PUBLIC "-//W3C//DTD SVG 20010904//EN"
 "http://www.w3.org/TR/2001/REC-SVG-20010904/DTD/svg10.dtd">
<svg version="1.0" xmlns="http://www.w3.org/2000/svg"
 width="400" height="100" viewBox="0 0 400 100.000000"
 >

<g
fill="#ffffff" stroke="none">
<path d="M4960 6130 l0 -420 470 0 470 0 0 420 0 420 -470 0 -470 0 0 -420z
m910 0 l0 -390 -440 0 -440 0 0 390 0 390 440 0 440 0 0 -390z"/>
<path d="M5250 6203 c-152 -218 -165 -235 -170 -208 -3 17 -10 29 -15 28 -14
-4 -13 -115 1 -120 6 -2 28 22 50 54 l39 58 3 -57 3 -58 82 0 82 0 51 95 50
95 44 -95 43 -96 91 3 91 3 5 50 5 50 37 -53 c21 -28 42 -52 48 -52 6 0 10 29
10 66 0 48 -3 65 -12 62 -7 -3 -15 -17 -18 -32 -4 -25 -22 -3 -169 208 -90
130 -169 236 -175 236 -6 0 -85 -107 -176 -237z m304 17 l116 -165 0 -63 0
-63 -71 3 -70 3 -47 103 c-25 56 -51 101 -57 99 -5 -2 -34 -49 -63 -105 l-53
-102 -59 0 -60 0 0 68 0 67 117 168 c64 92 120 164 124 160 4 -5 60 -82 123
-173z"/>
<path d="M6070 6271 c0 -29 2 -30 53 -33 l52 -3 3 -147 3 -148 34 0 35 0 0
150 0 150 50 0 c49 0 50 1 50 30 l0 30 -140 0 -140 0 0 -29z"/>
<path d="M6410 6120 l0 -180 88 0 c150 0 212 50 212 173 0 135 -63 187 -227
187 l-73 0 0 -180z m174 106 c42 -17 60 -60 54 -127 -7 -69 -30 -91 -102 -97
l-56 -4 0 121 0 121 35 0 c20 0 50 -6 69 -14z"/>
<path d="M6849 6280 c-101 -54 -106 -260 -7 -320 24 -14 50 -20 95 -20 55 0
66 4 96 30 46 40 52 65 19 80 -23 10 -28 8 -50 -19 -20 -26 -30 -31 -66 -31
-33 0 -48 6 -67 26 -21 22 -24 35 -24 96 0 64 2 72 28 94 38 33 90 32 123 -2
25 -24 27 -24 50 -9 31 20 30 25 -6 60 -26 25 -40 30 -93 32 -47 3 -71 -1 -98
-17z"/>
</g>
</svg>
