<?xml version="1.0" standalone="no"?>
<!DOCTYPE svg PUBLIC "-//W3C//DTD SVG 20010904//EN"
 "http://www.w3.org/TR/2001/REC-SVG-20010904/DTD/svg10.dtd">
<svg version="1.0" xmlns="http://www.w3.org/2000/svg"
 width="1800.000000pt" height="1200.000000pt" viewBox="0 0 1800.000000 1200.000000"
 preserveAspectRatio="xMidYMid meet">

<g transform="translate(0.000000,1200.000000) scale(0.100000,-0.100000)"
fill="#000000" stroke="none">
<path d="M4960 6130 l0 -420 470 0 470 0 0 420 0 420 -470 0 -470 0 0 -420z
m910 0 l0 -390 -440 0 -440 0 0 390 0 390 440 0 440 0 0 -390z"/>
<path d="M5250 6203 c-152 -218 -165 -235 -170 -208 -3 17 -10 29 -15 28 -14
-4 -13 -115 1 -120 6 -2 28 22 50 54 l39 58 3 -57 3 -58 82 0 82 0 51 95 50
95 44 -95 43 -96 91 3 91 3 5 50 5 50 37 -53 c21 -28 42 -52 48 -52 6 0 10 29
10 66 0 48 -3 65 -12 62 -7 -3 -15 -17 -18 -32 -4 -25 -22 -3 -169 208 -90
130 -169 236 -175 236 -6 0 -85 -107 -176 -237z m304 17 l116 -165 0 -63 0
-63 -71 3 -70 3 -47 103 c-25 56 -51 101 -57 99 -5 -2 -34 -49 -63 -105 l-53
-102 -59 0 -60 0 0 68 0 67 117 168 c64 92 120 164 124 160 4 -5 60 -82 123
-173z"/>
<path d="M6080 6280 c0 -18 6 -20 55 -20 l55 0 0 -160 c0 -153 1 -160 20 -160
19 0 20 7 20 160 l0 160 61 0 c52 0 60 2 57 18 -3 15 -19 17 -136 20 -127 2
-132 2 -132 -18z"/>
<path d="M6410 6121 l0 -181 82 0 c108 0 158 23 189 86 17 36 20 58 17 109 -7
114 -59 157 -200 163 l-88 4 0 -181z m189 124 c67 -34 79 -178 20 -237 -25
-25 -34 -28 -98 -28 l-71 0 0 140 0 140 60 0 c34 0 74 -7 89 -15z"/>
<path d="M6860 6282 c-104 -52 -118 -225 -26 -311 20 -19 40 -26 85 -29 69 -5
113 14 136 58 14 27 14 31 1 36 -10 4 -25 -6 -41 -25 -32 -37 -79 -48 -127
-28 -44 18 -68 67 -68 137 0 92 42 140 121 140 37 0 52 -5 73 -27 19 -19 30
-23 38 -15 29 29 -42 82 -112 82 -25 0 -61 -8 -80 -18z"/>
</g>
</svg>
